<svg xmlns="http://www.w3.org/2000/svg" xmlns:xlink="http://www.w3.org/1999/xlink" enable-background="new 0 0 256 256" height="256" version="1.1" width="256" xml:space="preserve" style=""><rect id="backgroundrect" width="100%" height="100%" x="0" y="0" fill="none" stroke="none"/><g class="currentLayer" style=""><title>Layer 1</title><path d="M91.474,33.861l-89.6,89.6c-2.5,2.5-2.5,6.551,0,9.051l89.6,89.6c2.5,2.5,6.551,2.5,9.051,0s2.5-6.742,0-9.242L21.849,134  H249.6c3.535,0,6.4-2.466,6.4-6s-2.865-6-6.4-6H21.849l78.676-78.881c1.25-1.25,1.875-2.993,1.875-4.629s-0.625-3.326-1.875-4.576  C98.024,31.413,93.974,31.361,91.474,33.861z" id="svg_1" class="selected" transform="" fill="#ffffff" fill-opacity="1"/></g></svg>